<?xml version="1.0" standalone="no"?>
<!DOCTYPE svg PUBLIC "-//W3C//DTD SVG 20010904//EN"
 "http://www.w3.org/TR/2001/REC-SVG-20010904/DTD/svg10.dtd">
<svg version="1.0" xmlns="http://www.w3.org/2000/svg"
 width="120.000000pt" height="120.000000pt" viewBox="0 0 120.000000 120.000000"
 preserveAspectRatio="xMidYMid meet">

<g transform="translate(0.000000,120.000000) scale(0.100000,-0.100000)"
fill="#000000" stroke="none">
<path d="M0 600 l0 -600 600 0 600 0 0 600 0 600 -600 0 -600 0 0 -600z m943
348 l108 -188 -40 -68 c-23 -37 -41 -74 -41 -82 0 -8 18 -45 41 -82 l40 -69
-108 -187 -109 -187 -226 -3 -225 -2 -107 184 c-58 102 -106 190 -106 196 0 6
18 43 41 81 l41 69 -41 71 c-23 39 -41 75 -41 81 0 6 48 93 106 194 l107 184
226 -2 226 -3 108 -187z"/>
<path d="M378 968 c-123 -209 -121 -203 -103 -238 8 -16 19 -30 23 -30 4 0 25
32 46 70 l39 70 223 0 223 0 44 -75 43 -75 17 29 c9 16 17 34 17 41 0 7 -37
77 -82 156 l-83 144 -176 0 -177 0 -54 -92z"/>
<path d="M391 689 c-23 -39 -41 -74 -41 -79 0 -5 18 -40 41 -79 l41 -71 176 2
176 3 43 72 42 72 -42 75 -42 76 -177 0 -176 0 -41 -71z"/>
<path d="M872 454 l-42 -74 -223 0 -224 0 -39 70 c-21 38 -42 70 -46 70 -4 0
-15 -14 -23 -31 l-16 -31 84 -146 85 -147 178 -3 179 -2 83 145 c45 79 82 150
82 157 0 7 -8 25 -18 39 l-17 26 -43 -73z"/>
</g>
</svg>
